<?xml version="1.0" encoding="UTF-8" standalone="no"?><!DOCTYPE svg PUBLIC "-//W3C//DTD SVG 1.1//EN" "http://www.w3.org/Graphics/SVG/1.1/DTD/svg11.dtd"><svg width="100%" height="100%" viewBox="0 0 715 716" version="1.1" xmlns="http://www.w3.org/2000/svg" xmlns:xlink="http://www.w3.org/1999/xlink" xml:space="preserve" xmlns:serif="http://www.serif.com/" style="fill-rule:evenodd;clip-rule:evenodd;stroke-linejoin:round;stroke-miterlimit:1.41421;"><path d="M19.84,352.68c0,186.273 151.004,337.281 337.281,337.281c186.274,0 337.277,-151.008 337.277,-337.281c0,-186.273 -151.003,-337.281 -337.277,-337.281c-186.277,0 -337.281,151.008 -337.281,337.281Z" style="fill:#e9f7ff;fill-rule:nonzero;"/><path d="M357.121,32.68c43.918,0 86.481,8.559 126.559,25.52c38.718,16.402 73.519,39.839 103.359,69.679c29.84,29.84 53.281,64.642 69.68,103.36c16.961,40.082 25.519,82.64 25.519,126.562c0,43.918 -8.558,86.481 -25.519,126.559c-16.399,38.718 -39.84,73.519 -69.68,103.359c-29.84,29.84 -64.641,53.281 -103.359,69.68c-40.078,16.961 -82.641,25.519 -126.559,25.519c-43.922,0 -86.48,-8.558 -126.562,-25.519c-38.719,-16.399 -73.52,-39.84 -103.36,-69.68c-29.84,-29.84 -53.277,-64.641 -69.679,-103.359c-16.961,-40.078 -25.52,-82.641 -25.52,-126.559c0,-43.922 8.559,-86.48 25.52,-126.562c16.402,-38.718 39.839,-73.52 69.679,-103.36c29.84,-29.84 64.641,-53.277 103.36,-69.679c40.082,-16.961 82.722,-25.52 126.562,-25.52Zm0,-32c-48.242,0 -94.961,9.441 -139.043,28.078c-42.558,18 -80.719,43.762 -113.519,76.563c-32.797,32.8 -58.559,70.961 -76.559,113.519c-18.559,43.918 -28,90.719 -28,138.961c0,48.238 9.441,94.957 28.078,139.039c18,42.559 43.762,80.719 76.563,113.52c32.8,32.8 70.961,58.558 113.519,76.558c44.078,18.641 90.801,28.082 139.039,28.082c48.242,0 94.961,-9.441 139.039,-28.082c42.563,-18 80.723,-43.758 113.524,-76.558c32.797,-32.801 58.558,-70.961 76.558,-113.52c18.641,-44.082 28.078,-90.801 28.078,-139.039c0,-48.242 -9.597,-95.043 -28.238,-139.043c-18,-42.558 -43.762,-80.719 -76.558,-113.519c-32.801,-32.797 -70.961,-58.559 -113.524,-76.559c-44,-18.559 -90.719,-28 -138.957,-28Z" style="fill:#c7eaff;fill-rule:nonzero;"/><path d="M306.933,378.886l0,9.895c0,5.495 4.396,9.893 9.893,9.893c5.497,0 9.895,-4.398 9.895,-9.893l0,-9.895c0,-5.497 -4.398,-9.893 -9.895,-9.893c-5.497,0 -9.893,4.396 -9.893,9.893Zm80.247,0l0,9.895c0,5.495 4.398,9.893 9.895,9.893c5.495,0 9.893,-4.398 9.893,-9.893l0,-9.895c0,-5.497 -4.398,-9.893 -9.893,-9.893c-5.497,-1.099 -9.895,4.396 -9.895,9.893Zm-18.687,39.574c0,0 -4.397,6.595 -10.992,6.595c-6.597,0 -10.994,-5.494 -10.994,-6.595c-3.297,-4.396 -9.893,-6.595 -14.291,-3.298c-4.396,3.298 -6.595,9.893 -3.298,14.292c3.298,5.496 14.292,16.488 28.583,16.488c14.289,0 25.283,-9.893 28.581,-16.488c3.297,-4.399 2.199,-10.994 -3.298,-14.292c-4.398,-3.297 -10.994,-2.199 -14.291,3.298Z" style="fill:#1890ff;fill-rule:nonzero;"/><path d="M255.267,300.838c-25.283,0 -46.17,20.887 -46.17,46.17l0,84.645c0,5.495 4.396,10.991 10.994,10.991c5.494,0 10.991,-4.396 10.991,-10.991l0,-84.645c0,-13.191 10.994,-24.185 24.185,-24.185l204.467,0c13.19,0 24.184,10.994 24.184,24.185l0,84.645c0,5.495 4.396,10.991 10.994,10.991c5.494,0 10.991,-4.396 10.991,-10.991l0,-84.645c0,-25.283 -20.886,-46.17 -46.169,-46.17l-204.467,0Zm47.27,-112.128c6.595,0 10.991,4.397 10.991,10.994c0,6.595 -4.396,10.992 -10.991,10.992c-6.598,0 -10.994,-4.397 -10.994,-10.992c0,-6.597 4.396,-10.994 10.994,-10.994Zm57.161,0c6.596,0 10.994,4.397 10.994,10.994c0,6.595 -4.398,10.992 -10.994,10.992c-6.595,0 -10.992,-4.397 -10.992,-10.992c0,-6.597 5.497,-10.994 10.992,-10.994Zm58.262,0c6.597,0 10.994,4.397 10.994,10.994c0,6.595 -4.397,10.992 -10.994,10.992c-6.595,0 -10.992,-4.397 -10.992,-10.992c0,-6.597 4.397,-10.994 10.992,-10.994Zm0,37.376c6.597,0 10.994,4.398 10.994,10.993l0,43.971c0,6.595 -4.397,10.993 -10.994,10.993c-6.595,0 -10.992,-4.398 -10.992,-10.993l0,-43.971c0,-6.595 4.397,-10.993 10.992,-10.993Zm-58.262,0c6.596,0 10.994,4.398 10.994,10.993l0,43.971c0,6.595 -4.398,10.993 -10.994,10.993c-6.595,0 -10.992,-4.398 -10.992,-10.993l0,-43.971c0,-6.595 5.497,-10.993 10.992,-10.993Zm-57.161,0c6.595,0 10.991,4.398 10.991,10.993l0,43.971c0,6.595 -4.396,10.993 -10.991,10.993c-6.598,0 -10.994,-4.398 -10.994,-10.993l0,-43.971c0,-6.595 4.396,-10.993 10.994,-10.993Zm197.869,301.204l-285.812,0c-18.688,0 -32.979,-14.291 -32.979,-32.979c0,-18.688 14.291,-32.979 32.979,-32.979l285.812,0c18.69,0 32.979,14.291 32.979,32.979c0,18.688 -14.289,32.979 -32.979,32.979Zm-285.812,-43.973c-6.596,0 -10.994,4.398 -10.994,10.994c0,6.595 4.398,10.993 10.994,10.993l285.812,0c6.598,0 10.994,-4.398 10.994,-10.993c0,-6.596 -4.396,-10.994 -10.994,-10.994l-285.812,0Z" style="fill:#1890ff;fill-rule:nonzero;"/></svg>