<?xml version="1.0" encoding="UTF-8" standalone="no"?><!DOCTYPE svg PUBLIC "-//W3C//DTD SVG 1.1//EN" "http://www.w3.org/Graphics/SVG/1.1/DTD/svg11.dtd"><svg width="100%" height="100%" viewBox="0 0 715 716" version="1.1" xmlns="http://www.w3.org/2000/svg" xmlns:xlink="http://www.w3.org/1999/xlink" xml:space="preserve" xmlns:serif="http://www.serif.com/" style="fill-rule:evenodd;clip-rule:evenodd;stroke-linejoin:round;stroke-miterlimit:1.41421;"><path d="M19.84,352.68c0,186.273 151.004,337.281 337.281,337.281c186.274,0 337.277,-151.008 337.277,-337.281c0,-186.273 -151.003,-337.281 -337.277,-337.281c-186.277,0 -337.281,151.008 -337.281,337.281Z" style="fill:#e9f7ff;fill-rule:nonzero;"/><path d="M357.121,32.68c43.918,0 86.481,8.559 126.559,25.52c38.718,16.402 73.519,39.839 103.359,69.679c29.84,29.84 53.281,64.642 69.68,103.36c16.961,40.082 25.519,82.64 25.519,126.562c0,43.918 -8.558,86.481 -25.519,126.559c-16.399,38.718 -39.84,73.519 -69.68,103.359c-29.84,29.84 -64.641,53.281 -103.359,69.68c-40.078,16.961 -82.641,25.519 -126.559,25.519c-43.922,0 -86.48,-8.558 -126.562,-25.519c-38.719,-16.399 -73.52,-39.84 -103.36,-69.68c-29.84,-29.84 -53.277,-64.641 -69.679,-103.359c-16.961,-40.078 -25.52,-82.641 -25.52,-126.559c0,-43.922 8.559,-86.48 25.52,-126.562c16.402,-38.718 39.839,-73.52 69.679,-103.36c29.84,-29.84 64.641,-53.277 103.36,-69.679c40.082,-16.961 82.722,-25.52 126.562,-25.52Zm0,-32c-48.242,0 -94.961,9.441 -139.043,28.078c-42.558,18 -80.719,43.762 -113.519,76.563c-32.797,32.8 -58.559,70.961 -76.559,113.519c-18.559,43.918 -28,90.719 -28,138.961c0,48.238 9.441,94.957 28.078,139.039c18,42.559 43.762,80.719 76.563,113.52c32.8,32.8 70.961,58.558 113.519,76.558c44.078,18.641 90.801,28.082 139.039,28.082c48.242,0 94.961,-9.441 139.039,-28.082c42.563,-18 80.723,-43.758 113.524,-76.558c32.797,-32.801 58.558,-70.961 76.558,-113.52c18.641,-44.082 28.078,-90.801 28.078,-139.039c0,-48.242 -9.597,-95.043 -28.238,-139.043c-18,-42.558 -43.762,-80.719 -76.558,-113.519c-32.801,-32.797 -70.961,-58.559 -113.524,-76.559c-44,-18.559 -90.719,-28 -138.957,-28Z" style="fill:#c7eaff;fill-rule:nonzero;"/><path d="M357.499,517.259c-63.179,0 -114.582,-51.412 -114.582,-114.606c0,-19.936 5.225,-39.599 15.123,-56.864l0.534,-0.936l0.455,-0.979l0.412,-0.908c11.385,-23.108 55.369,-77.636 98.733,-127.212c61.114,69.863 85.402,103.774 94.993,119.973c1.451,2.449 2.638,4.597 3.516,6.356l0.251,0.978l1.027,2.14c1.181,2.475 2.182,4.691 3.017,6.636l4.416,12.365c4.441,12.428 6.689,25.364 6.689,38.451c0,63.194 -51.403,114.606 -114.584,114.606Z" style="fill:none;stroke:#1890ff;stroke-width:30px;"/><path d="M308.302,400.149l100.033,0" style="fill:none;stroke:#1890ff;stroke-width:30px;stroke-linecap:round;stroke-miterlimit:1.5;"/><path d="M357.5,353.359l0,99.226" style="fill:none;stroke:#1890ff;stroke-width:30px;stroke-linecap:round;stroke-miterlimit:1.5;"/></svg>