<?xml version="1.0" encoding="UTF-8" standalone="no"?><!DOCTYPE svg PUBLIC "-//W3C//DTD SVG 1.1//EN" "http://www.w3.org/Graphics/SVG/1.1/DTD/svg11.dtd"><svg width="100%" height="100%" viewBox="0 0 713 707" version="1.1" xmlns="http://www.w3.org/2000/svg" xmlns:xlink="http://www.w3.org/1999/xlink" xml:space="preserve" xmlns:serif="http://www.serif.com/" style="fill-rule:evenodd;clip-rule:evenodd;stroke-linecap:round;stroke-linejoin:round;stroke-miterlimit:1.41421;"><g><path d="M19.84,352.68c0,186.273 151.004,337.281 337.281,337.281c186.274,0 337.277,-151.008 337.277,-337.281c0,-186.273 -151.003,-337.281 -337.277,-337.281c-186.277,0 -337.281,151.008 -337.281,337.281Z" style="fill:#e9f7ff;fill-rule:nonzero;"/><path d="M357.121,32.68c43.918,0 86.481,8.559 126.559,25.52c38.718,16.402 73.519,39.839 103.359,69.679c29.84,29.84 53.281,64.642 69.68,103.36c16.961,40.082 25.519,82.64 25.519,126.562c0,43.918 -8.558,86.481 -25.519,126.559c-16.399,38.718 -39.84,73.519 -69.68,103.359c-29.84,29.84 -64.641,53.281 -103.359,69.68c-40.078,16.961 -82.641,25.519 -126.559,25.519c-43.922,0 -86.48,-8.558 -126.562,-25.519c-38.719,-16.399 -73.52,-39.84 -103.36,-69.68c-29.84,-29.84 -53.277,-64.641 -69.679,-103.359c-16.961,-40.078 -25.52,-82.641 -25.52,-126.559c0,-43.922 8.559,-86.48 25.52,-126.562c16.402,-38.718 39.839,-73.52 69.679,-103.36c29.84,-29.84 64.641,-53.277 103.36,-69.679c40.082,-16.961 82.722,-25.52 126.562,-25.52Zm0,-32c-48.242,0 -94.961,9.441 -139.043,28.078c-42.558,18 -80.719,43.762 -113.519,76.563c-32.797,32.8 -58.559,70.961 -76.559,113.519c-18.559,43.918 -28,90.719 -28,138.961c0,48.238 9.441,94.957 28.078,139.039c18,42.559 43.762,80.719 76.563,113.52c32.8,32.8 70.961,58.558 113.519,76.558c44.078,18.641 90.801,28.082 139.039,28.082c48.242,0 94.961,-9.441 139.039,-28.082c42.563,-18 80.723,-43.758 113.524,-76.558c32.797,-32.801 58.558,-70.961 76.558,-113.52c18.641,-44.082 28.078,-90.801 28.078,-139.039c0,-48.242 -9.597,-95.043 -28.238,-139.043c-18,-42.558 -43.762,-80.719 -76.558,-113.519c-32.801,-32.797 -70.961,-58.559 -113.524,-76.559c-44,-18.559 -90.719,-28 -138.957,-28Z" style="fill:#c7eaff;fill-rule:nonzero;"/><g><path d="M186.04,449.476c0.244,-0.191 24.551,-19.408 32.006,-48.04c3.042,-11.683 8.613,-24.105 15.28,-34.08c8.579,-12.832 18.783,-21.424 29.507,-24.852c9.2,-2.939 23.627,-3.564 40.111,10.154c2.859,2.379 8.453,6.227 13.801,5.279c10.579,-1.876 21.329,1.164 28.754,8.133c7.332,6.882 10.634,16.904 9.296,28.218c-0.484,4.093 1.787,11.1 4.672,14.42c6.579,7.566 12.347,21.683 10.4,36.163c-1.611,11.994 -8.166,22.149 -18.957,29.363c-1.014,0.676 -1.998,1.401 -3.041,2.165c-3.098,2.275 -6.611,4.854 -11.815,6.875c-2.127,0.828 -4.252,1.667 -6.371,2.514c-32.789,13.11 -49.024,22.682 -69.48,40.972" style="fill:none;stroke:#1890ff;stroke-width:30px;"/><path d="M528.358,266.948c-32.533,23.56 -30.766,52.296 -30.743,52.584l0.003,0.066c0.032,0.495 0.755,12.27 -2.847,25.627c-5.004,18.553 -15.89,31.268 -31.475,36.768c-6.689,2.36 -13.261,3.528 -19.472,3.528c-10.041,0 -19.143,-3.048 -26.301,-9.022c-10.542,-8.8 -15.389,-22.692 -12.967,-37.161c1.634,-9.762 -2.258,-16.111 -5.811,-19.721c-5.556,-5.642 -14.276,-8.705 -21.699,-7.625c-10.461,1.525 -20.15,0.29 -28.022,-3.572c-9.363,-4.593 -15.909,-12.775 -18.934,-23.666c-2.218,-7.988 -4.517,-23.621 5.017,-38.574c8.586,-13.465 24.151,-22.204 46.263,-25.973c42.649,-7.269 64.673,-31.047 64.89,-31.287" style="fill:none;stroke:#1890ff;stroke-width:30px;"/></g></g></svg>