<?xml version="1.0" encoding="UTF-8" standalone="no"?><!DOCTYPE svg PUBLIC "-//W3C//DTD SVG 1.1//EN" "http://www.w3.org/Graphics/SVG/1.1/DTD/svg11.dtd"><svg width="100%" height="100%" viewBox="0 0 715 716" version="1.1" xmlns="http://www.w3.org/2000/svg" xmlns:xlink="http://www.w3.org/1999/xlink" xml:space="preserve" xmlns:serif="http://www.serif.com/" style="fill-rule:evenodd;clip-rule:evenodd;stroke-linejoin:round;stroke-miterlimit:1.41421;"><path d="M19.84,352.68c0,186.273 151.004,337.281 337.281,337.281c186.274,0 337.277,-151.008 337.277,-337.281c0,-186.273 -151.003,-337.281 -337.277,-337.281c-186.277,0 -337.281,151.008 -337.281,337.281Z" style="fill:#e9f7ff;fill-rule:nonzero;"/><path d="M357.121,32.68c43.918,0 86.481,8.559 126.559,25.52c38.718,16.402 73.519,39.839 103.359,69.679c29.84,29.84 53.281,64.642 69.68,103.36c16.961,40.082 25.519,82.64 25.519,126.562c0,43.918 -8.558,86.481 -25.519,126.559c-16.399,38.718 -39.84,73.519 -69.68,103.359c-29.84,29.84 -64.641,53.281 -103.359,69.68c-40.078,16.961 -82.641,25.519 -126.559,25.519c-43.922,0 -86.48,-8.558 -126.562,-25.519c-38.719,-16.399 -73.52,-39.84 -103.36,-69.68c-29.84,-29.84 -53.277,-64.641 -69.679,-103.359c-16.961,-40.078 -25.52,-82.641 -25.52,-126.559c0,-43.922 8.559,-86.48 25.52,-126.562c16.402,-38.718 39.839,-73.52 69.679,-103.36c29.84,-29.84 64.641,-53.277 103.36,-69.679c40.082,-16.961 82.722,-25.52 126.562,-25.52Zm0,-32c-48.242,0 -94.961,9.441 -139.043,28.078c-42.558,18 -80.719,43.762 -113.519,76.563c-32.797,32.8 -58.559,70.961 -76.559,113.519c-18.559,43.918 -28,90.719 -28,138.961c0,48.238 9.441,94.957 28.078,139.039c18,42.559 43.762,80.719 76.563,113.52c32.8,32.8 70.961,58.558 113.519,76.558c44.078,18.641 90.801,28.082 139.039,28.082c48.242,0 94.961,-9.441 139.039,-28.082c42.563,-18 80.723,-43.758 113.524,-76.558c32.797,-32.801 58.558,-70.961 76.558,-113.52c18.641,-44.082 28.078,-90.801 28.078,-139.039c0,-48.242 -9.597,-95.043 -28.238,-139.043c-18,-42.558 -43.762,-80.719 -76.558,-113.519c-32.801,-32.797 -70.961,-58.559 -113.524,-76.559c-44,-18.559 -90.719,-28 -138.957,-28Z" style="fill:#c7eaff;fill-rule:nonzero;"/><g><path d="M453.057,339.846l-0.06,-71.115l22.811,23.178c2.384,2.427 5.541,3.646 8.695,3.642c3.083,-0.002 6.166,-1.166 8.545,-3.501c4.793,-4.723 4.859,-12.439 0.13,-17.239l-35.493,-36.082c-2.026,-2.64 -6.671,-7.454 -14.15,-8.322c-4.583,-0.555 -11.666,0.348 -18.91,7.599c-9.339,9.363 -36.206,36.914 -36.206,36.914l0.044,0.044c-2.132,2.198 -3.469,5.174 -3.465,8.478c0.006,6.731 5.468,12.185 12.2,12.181c3.412,-0.001 6.475,-1.421 8.686,-3.682l0.002,0.002c0,0 12.012,-12.322 22.736,-23.256l0.059,71.18c-35.672,5.865 -62.9,36.769 -62.87,74.094c0.035,41.486 33.692,75.092 75.181,75.058c41.487,-0.034 75.091,-33.692 75.056,-75.181c-0.036,-37.324 -27.312,-68.182 -62.991,-73.992Zm-11.867,122.51c-26.24,0 -47.51,-21.27 -47.51,-47.51c0,-26.242 21.27,-47.512 47.51,-47.512c26.242,0 47.512,21.27 47.512,47.512c0,26.24 -21.27,47.51 -47.512,47.51Z" style="fill:#1890ff;fill-rule:nonzero;"/><path d="M322.442,409.26l-36.098,0.03l-0.023,-29.878l-0.004,-3.397c35.672,-5.867 62.9,-36.768 62.87,-74.094c-0.034,-41.487 -33.692,-75.091 -75.179,-75.056c-41.487,0.034 -75.091,33.691 -75.056,75.176c0.03,37.328 27.308,68.185 62.986,73.993l0.003,3.399l0.023,29.877l-37.043,0.03c-6.733,0.006 -12.185,5.467 -12.182,12.198c0.006,6.733 5.468,12.185 12.199,12.182l37.045,-0.031l0.035,43.265c0.007,6.731 5.467,12.185 12.202,12.181c6.731,-0.007 12.185,-5.467 12.179,-12.2l-0.034,-43.263l36.096,-0.031c6.732,-0.005 12.185,-5.467 12.181,-12.198c-0.006,-6.737 -5.468,-12.189 -12.2,-12.183Zm-47.97,-58.598c-26.24,0 -47.512,-21.27 -47.512,-47.512c0,-26.24 21.272,-47.51 47.512,-47.51c26.239,0 47.51,21.27 47.51,47.51c0,26.242 -21.271,47.512 -47.51,47.512Z" style="fill:#1890ff;fill-rule:nonzero;"/></g></svg>