<?xml version="1.0" encoding="UTF-8" standalone="no"?><!DOCTYPE svg PUBLIC "-//W3C//DTD SVG 1.1//EN" "http://www.w3.org/Graphics/SVG/1.1/DTD/svg11.dtd"><svg width="100%" height="100%" viewBox="0 0 715 716" version="1.1" xmlns="http://www.w3.org/2000/svg" xmlns:xlink="http://www.w3.org/1999/xlink" xml:space="preserve" xmlns:serif="http://www.serif.com/" style="fill-rule:evenodd;clip-rule:evenodd;stroke-linejoin:round;stroke-miterlimit:1.41421;"><path d="M19.84,352.68c0,186.273 151.004,337.281 337.281,337.281c186.274,0 337.277,-151.008 337.277,-337.281c0,-186.273 -151.003,-337.281 -337.277,-337.281c-186.277,0 -337.281,151.008 -337.281,337.281Z" style="fill:#e9f7ff;fill-rule:nonzero;"/><path d="M357.121,32.68c43.918,0 86.481,8.559 126.559,25.52c38.718,16.402 73.519,39.839 103.359,69.679c29.84,29.84 53.281,64.642 69.68,103.36c16.961,40.082 25.519,82.64 25.519,126.562c0,43.918 -8.558,86.481 -25.519,126.559c-16.399,38.718 -39.84,73.519 -69.68,103.359c-29.84,29.84 -64.641,53.281 -103.359,69.68c-40.078,16.961 -82.641,25.519 -126.559,25.519c-43.922,0 -86.48,-8.558 -126.562,-25.519c-38.719,-16.399 -73.52,-39.84 -103.36,-69.68c-29.84,-29.84 -53.277,-64.641 -69.679,-103.359c-16.961,-40.078 -25.52,-82.641 -25.52,-126.559c0,-43.922 8.559,-86.48 25.52,-126.562c16.402,-38.718 39.839,-73.52 69.679,-103.36c29.84,-29.84 64.641,-53.277 103.36,-69.679c40.082,-16.961 82.722,-25.52 126.562,-25.52Zm0,-32c-48.242,0 -94.961,9.441 -139.043,28.078c-42.558,18 -80.719,43.762 -113.519,76.563c-32.797,32.8 -58.559,70.961 -76.559,113.519c-18.559,43.918 -28,90.719 -28,138.961c0,48.238 9.441,94.957 28.078,139.039c18,42.559 43.762,80.719 76.563,113.52c32.8,32.8 70.961,58.558 113.519,76.558c44.078,18.641 90.801,28.082 139.039,28.082c48.242,0 94.961,-9.441 139.039,-28.082c42.563,-18 80.723,-43.758 113.524,-76.558c32.797,-32.801 58.558,-70.961 76.558,-113.52c18.641,-44.082 28.078,-90.801 28.078,-139.039c0,-48.242 -9.597,-95.043 -28.238,-139.043c-18,-42.558 -43.762,-80.719 -76.558,-113.519c-32.801,-32.797 -70.961,-58.559 -113.524,-76.559c-44,-18.559 -90.719,-28 -138.957,-28Z" style="fill:#c7eaff;fill-rule:nonzero;"/><path d="M217.69,493.596c-3.022,0 -5.439,-0.605 -8.459,-1.813c-3.625,-1.812 -14.5,-8.459 -9.063,-28.396l1.813,-5.438c6.042,-20.544 8.458,-29.606 -8.46,-85.795c-10.27,-32.626 -1.812,-56.188 6.647,-69.481c12.083,-18.729 33.23,-32.021 56.189,-35.646c30.209,-4.23 103.315,8.457 131.712,42.292c11.479,13.292 14.502,29.001 9.064,45.313c-12.084,36.857 -5.439,54.378 -0.604,61.628c3.625,5.438 3.625,12.688 -0.605,18.125c-4.23,5.438 -11.48,7.855 -18.125,5.438c-2.417,-0.603 -4.835,-1.813 -6.647,-3.02c-1.208,-0.605 -2.416,-1.21 -3.625,-2.418c-7.855,-5.437 -18.73,-12.084 -49.544,-7.25c-34.437,5.438 -77.335,47.731 -82.773,56.189c-2.415,6.647 -10.27,10.272 -17.52,10.272Zm236.213,-81.566c-3.02,0 -6.04,-0.604 -8.457,-2.417c-11.48,-7.249 -5.438,-24.771 -3.625,-30.209c11.479,-35.042 7.249,-50.146 3.02,-59.813c-3.02,-6.647 -3.02,-13.898 0.605,-19.94c3.624,-6.04 10.27,-9.665 16.917,-10.27c5.437,0 11.479,0 18.124,1.208c48.939,12.084 71.296,22.959 74.921,37.459c3.02,12.084 -7.252,21.752 -16.315,30.21l-2.415,2.417c-0.605,1.207 -54.981,51.355 -82.775,51.355Z" style="fill:none;stroke:#1890ff;stroke-width:30px;"/></svg>