<?xml version="1.0" encoding="UTF-8" standalone="no"?><!DOCTYPE svg PUBLIC "-//W3C//DTD SVG 1.1//EN" "http://www.w3.org/Graphics/SVG/1.1/DTD/svg11.dtd"><svg width="100%" height="100%" viewBox="0 0 120 31" version="1.1" xmlns="http://www.w3.org/2000/svg" xmlns:xlink="http://www.w3.org/1999/xlink" xml:space="preserve" xmlns:serif="http://www.serif.com/" style="fill-rule:evenodd;clip-rule:evenodd;stroke-linejoin:round;stroke-miterlimit:1.41421;"><rect id="画板1" x="0" y="0" width="120" height="31" style="fill:none;"/><clipPath id="_clip1"><rect x="0" y="0" width="120" height="31"/></clipPath><g clip-path="url(#_clip1)"><g><path d="M3.013,5.71c-6.012,10.498 -3.277,24.061 10.469,25.222c8.341,0.704 13.224,-4.179 9.935,-8.233c-5.239,-6.46 2.057,-14.637 -0.538,-18.983c-2.86,-4.788 -15.422,-5.765 -19.866,1.994Z" style="fill:url(#_Linear2);"/><path d="M23.271,15.161c0.499,-3.563 2.03,-8.304 4.288,-6.936c2.728,1.655 3.246,15.039 -1.273,13.645c-3.008,-0.927 -3.497,-3.259 -3.015,-6.709Z" style="fill:url(#_Linear3);"/></g><text x="36.984px" y="22.724px" style="font-family:'ArialRoundedMTBold', 'Arial Rounded MT Bold', sans-serif;font-size:20.183px;fill:#3b73ff;">I<tspan x="42.201px 52.269px 58.023px 62.54px 68.091px 80.755px 90.66px 100.565px 105.082px 110.982px " y="22.724px 22.724px 22.724px 22.724px 22.724px 22.724px 22.724px 22.724px 22.724px 22.724px ">nfi-Health</tspan></text></g><defs><linearGradient id="_Linear2" x1="0" y1="0" x2="1" y2="0" gradientUnits="userSpaceOnUse" gradientTransform="matrix(27.8058,14.2247,-14.2247,27.8058,3.49128,6.81108)"><stop offset="0" style="stop-color:#ee2ea5;stop-opacity:1"/><stop offset="0.18" style="stop-color:#a72fba;stop-opacity:1"/><stop offset="0.33" style="stop-color:#8c2fc2;stop-opacity:1"/><stop offset="0.66" style="stop-color:#5647e1;stop-opacity:1"/><stop offset="0.83" style="stop-color:#5758e9;stop-opacity:1"/><stop offset="1" style="stop-color:#5a89ff;stop-opacity:1"/></linearGradient><linearGradient id="_Linear3" x1="0" y1="0" x2="1" y2="0" gradientUnits="userSpaceOnUse" gradientTransform="matrix(27.8058,14.2247,-14.2247,27.8058,3.49127,6.81107)"><stop offset="0" style="stop-color:#ee2ea5;stop-opacity:1"/><stop offset="0.21" style="stop-color:#a72fba;stop-opacity:1"/><stop offset="0.4" style="stop-color:#8c2fc2;stop-opacity:1"/><stop offset="0.6" style="stop-color:#6441d9;stop-opacity:1"/><stop offset="0.79" style="stop-color:#5647e1;stop-opacity:1"/><stop offset="1" style="stop-color:#5a89ff;stop-opacity:1"/></linearGradient></defs></svg>