<?xml version="1.0" encoding="UTF-8" standalone="no"?><!DOCTYPE svg PUBLIC "-//W3C//DTD SVG 1.1//EN" "http://www.w3.org/Graphics/SVG/1.1/DTD/svg11.dtd"><svg width="100%" height="100%" viewBox="0 0 715 716" version="1.1" xmlns="http://www.w3.org/2000/svg" xmlns:xlink="http://www.w3.org/1999/xlink" xml:space="preserve" xmlns:serif="http://www.serif.com/" style="fill-rule:evenodd;clip-rule:evenodd;stroke-linejoin:round;stroke-miterlimit:1.41421;"><path d="M19.84,352.68c0,186.273 151.004,337.281 337.281,337.281c186.274,0 337.277,-151.008 337.277,-337.281c0,-186.273 -151.003,-337.281 -337.277,-337.281c-186.277,0 -337.281,151.008 -337.281,337.281Z" style="fill:#e9f7ff;fill-rule:nonzero;"/><path d="M357.121,32.68c43.918,0 86.481,8.559 126.559,25.52c38.718,16.402 73.519,39.839 103.359,69.679c29.84,29.84 53.281,64.642 69.68,103.36c16.961,40.082 25.519,82.64 25.519,126.562c0,43.918 -8.558,86.481 -25.519,126.559c-16.399,38.718 -39.84,73.519 -69.68,103.359c-29.84,29.84 -64.641,53.281 -103.359,69.68c-40.078,16.961 -82.641,25.519 -126.559,25.519c-43.922,0 -86.48,-8.558 -126.562,-25.519c-38.719,-16.399 -73.52,-39.84 -103.36,-69.68c-29.84,-29.84 -53.277,-64.641 -69.679,-103.359c-16.961,-40.078 -25.52,-82.641 -25.52,-126.559c0,-43.922 8.559,-86.48 25.52,-126.562c16.402,-38.718 39.839,-73.52 69.679,-103.36c29.84,-29.84 64.641,-53.277 103.36,-69.679c40.082,-16.961 82.722,-25.52 126.562,-25.52Zm0,-32c-48.242,0 -94.961,9.441 -139.043,28.078c-42.558,18 -80.719,43.762 -113.519,76.563c-32.797,32.8 -58.559,70.961 -76.559,113.519c-18.559,43.918 -28,90.719 -28,138.961c0,48.238 9.441,94.957 28.078,139.039c18,42.559 43.762,80.719 76.563,113.52c32.8,32.8 70.961,58.558 113.519,76.558c44.078,18.641 90.801,28.082 139.039,28.082c48.242,0 94.961,-9.441 139.039,-28.082c42.563,-18 80.723,-43.758 113.524,-76.558c32.797,-32.801 58.558,-70.961 76.558,-113.52c18.641,-44.082 28.078,-90.801 28.078,-139.039c0,-48.242 -9.597,-95.043 -28.238,-139.043c-18,-42.558 -43.762,-80.719 -76.558,-113.519c-32.801,-32.797 -70.961,-58.559 -113.524,-76.559c-44,-18.559 -90.719,-28 -138.957,-28Z" style="fill:#c7eaff;fill-rule:nonzero;"/><g><path d="M511.519,220.802c5.43,0 10.862,4.344 10.862,10.862l0,274.843c0,5.432 -4.344,10.864 -10.862,10.864c-5.432,0 -10.864,-4.344 -10.864,-10.864l0,-274.843c0,-6.518 4.345,-10.862 10.864,-10.862Z" style="fill:#1890ff;fill-rule:nonzero;"/><path d="M468.065,220.802l39.108,0c5.432,0 10.864,4.344 10.864,10.862c0,5.433 -4.346,10.864 -10.864,10.864l-39.108,0c-5.432,0 -10.863,-4.346 -10.863,-10.864c0,-6.518 5.431,-10.862 10.863,-10.862Zm0,66.266l39.108,0c5.432,0 10.864,4.345 10.864,10.863c0,5.432 -4.346,10.864 -10.864,10.864l-39.108,0c-5.432,0 -10.863,-4.346 -10.863,-10.864c0,-6.518 5.431,-10.863 10.863,-10.863Zm0,66.267l39.108,0c5.432,0 10.864,4.345 10.864,10.862c0,5.433 -4.346,10.865 -10.864,10.865l-39.108,0c-5.432,0 -10.863,-4.347 -10.863,-10.865c0,-6.517 5.431,-10.862 10.863,-10.862Zm0,66.267l39.108,0c5.432,0 10.864,4.344 10.864,10.862c0,5.432 -4.346,10.864 -10.864,10.864l-39.108,0c-5.432,0 -10.863,-4.346 -10.863,-10.864c0,-5.432 5.431,-10.862 10.863,-10.862Zm0,74.955l39.108,0c5.432,0 10.864,4.346 10.864,10.864c0,5.433 -4.346,10.864 -10.864,10.864l-39.108,0c-5.432,0 -10.863,-4.346 -10.863,-10.864c0,-5.432 5.431,-10.864 10.863,-10.864Zm-190.109,-92.337c-21.727,-17.382 -31.503,-34.764 -31.503,-59.749c0,-5.432 -4.346,-9.776 -9.778,-9.776c-5.431,0 -9.777,4.344 -9.777,9.776c0,27.159 9.777,47.799 30.417,67.352c-31.503,23.9 -48.885,48.887 -56.488,81.476c-1.087,5.431 2.171,10.863 7.603,11.949l2.174,0c4.344,0 8.691,-3.259 9.776,-7.603c7.605,-30.418 26.073,-54.317 59.749,-78.217c4.345,-3.258 5.432,-9.776 2.173,-14.123c-2.173,0 -3.26,-1.085 -4.346,-1.085Zm168.382,89.079c-8.691,-32.589 -26.072,-57.576 -56.489,-81.476c20.64,-19.553 30.417,-41.279 30.417,-68.438c0,-5.432 -4.345,-9.778 -9.777,-9.778c-5.432,0 -9.777,4.346 -9.777,9.778c0,23.9 -9.776,42.367 -31.504,59.747l-3.259,3.261c-3.259,4.345 -2.172,10.862 2.173,14.121c33.676,23.9 49.972,46.713 58.662,78.216c1.087,4.347 5.432,7.606 9.778,7.606l2.171,0c6.519,-2.174 9.778,-7.606 7.605,-13.037Z" style="fill:#1890ff;fill-rule:nonzero;"/><path d="M243.194,309.881c0,0 -4.346,-28.245 13.035,-48.885c13.036,-15.209 35.85,-22.814 67.353,-22.814c31.505,0 53.231,7.605 67.354,23.899c17.38,20.641 13.035,48.887 13.035,48.887c-1.086,5.43 2.173,10.862 8.691,11.95l2.172,0c4.346,0 8.691,-3.261 9.778,-8.691c0,-1.087 6.518,-36.937 -17.382,-65.181c-17.381,-20.641 -44.54,-30.417 -82.561,-30.417c-38.022,0 -65.181,9.776 -82.562,30.417c-22.812,28.244 -17.382,63.008 -17.382,65.181c1.087,5.43 6.519,8.691 11.95,7.603c4.346,-1.085 7.605,-6.517 6.519,-11.949Z" style="fill:#1890ff;fill-rule:nonzero;"/><path d="M287.733,315.313c-5.431,0 -9.777,4.344 -9.777,9.776l0,10.864c0,5.432 4.346,9.777 9.777,9.777c5.432,0 9.778,-4.345 9.778,-9.777l0,-10.864c0,-5.432 -4.346,-9.776 -9.778,-9.776Zm70.612,0c-5.431,0 -9.776,4.344 -9.776,9.776l0,10.864c0,5.432 4.345,9.777 9.776,9.777c5.432,0 9.777,-4.345 9.777,-9.777l0,-10.864c1.086,-5.432 -3.259,-9.776 -9.777,-9.776Zm-10.864,41.281c-4.344,-3.259 -10.862,-2.173 -14.122,3.259c0,0 -4.345,6.517 -10.863,6.517c-6.517,0 -10.864,-5.432 -10.864,-6.517c-3.259,-4.346 -8.691,-6.518 -14.121,-3.259c-4.346,3.259 -6.519,8.691 -3.259,14.121c3.259,5.432 13.035,15.209 27.158,15.209c14.122,0 23.898,-9.777 27.159,-15.209c5.43,-4.345 4.345,-10.862 -1.088,-14.121Z" style="fill:#1890ff;fill-rule:nonzero;"/></g></svg>