<?xml version="1.0" encoding="UTF-8" standalone="no"?><!DOCTYPE svg PUBLIC "-//W3C//DTD SVG 1.1//EN" "http://www.w3.org/Graphics/SVG/1.1/DTD/svg11.dtd"><svg width="100%" height="100%" viewBox="0 0 715 716" version="1.1" xmlns="http://www.w3.org/2000/svg" xmlns:xlink="http://www.w3.org/1999/xlink" xml:space="preserve" xmlns:serif="http://www.serif.com/" style="fill-rule:evenodd;clip-rule:evenodd;stroke-linejoin:round;stroke-miterlimit:1.41421;"><g><g><path d="M19.84,352.68c0,186.273 151.004,337.281 337.281,337.281c186.274,0 337.277,-151.008 337.277,-337.281c0,-186.273 -151.003,-337.281 -337.277,-337.281c-186.277,0 -337.281,151.008 -337.281,337.281Z" style="fill:#e9f7ff;fill-rule:nonzero;"/><path d="M357.121,32.68c43.918,0 86.481,8.559 126.559,25.52c38.718,16.402 73.519,39.839 103.359,69.679c29.84,29.84 53.281,64.642 69.68,103.36c16.961,40.082 25.519,82.64 25.519,126.562c0,43.918 -8.558,86.481 -25.519,126.559c-16.399,38.718 -39.84,73.519 -69.68,103.359c-29.84,29.84 -64.641,53.281 -103.359,69.68c-40.078,16.961 -82.641,25.519 -126.559,25.519c-43.922,0 -86.48,-8.558 -126.562,-25.519c-38.719,-16.399 -73.52,-39.84 -103.36,-69.68c-29.84,-29.84 -53.277,-64.641 -69.679,-103.359c-16.961,-40.078 -25.52,-82.641 -25.52,-126.559c0,-43.922 8.559,-86.48 25.52,-126.562c16.402,-38.718 39.839,-73.52 69.679,-103.36c29.84,-29.84 64.641,-53.277 103.36,-69.679c40.082,-16.961 82.722,-25.52 126.562,-25.52Zm0,-32c-48.242,0 -94.961,9.441 -139.043,28.078c-42.558,18 -80.719,43.762 -113.519,76.563c-32.797,32.8 -58.559,70.961 -76.559,113.519c-18.559,43.918 -28,90.719 -28,138.961c0,48.238 9.441,94.957 28.078,139.039c18,42.559 43.762,80.719 76.563,113.52c32.8,32.8 70.961,58.558 113.519,76.558c44.078,18.641 90.801,28.082 139.039,28.082c48.242,0 94.961,-9.441 139.039,-28.082c42.563,-18 80.723,-43.758 113.524,-76.558c32.797,-32.801 58.558,-70.961 76.558,-113.52c18.641,-44.082 28.078,-90.801 28.078,-139.039c0,-48.242 -9.597,-95.043 -28.238,-139.043c-18,-42.558 -43.762,-80.719 -76.558,-113.519c-32.801,-32.797 -70.961,-58.559 -113.524,-76.559c-44,-18.559 -90.719,-28 -138.957,-28Z" style="fill:#c7eaff;fill-rule:nonzero;"/><path d="M500,213.641c-12.641,-16.563 -29.441,-26 -48.641,-27.281c-17.519,-1.2 -31.519,1.84 -42.718,9.281c-10.719,7.117 -18.403,18.238 -22.641,33.039l-0.078,0.238c-2.961,10.883 -4.082,22.082 -3.524,33.282c0.403,7.601 3.84,14.8 9.442,19.601c6.64,5.84 16.801,5.117 22.558,-1.519c5.364,-6.161 5.204,-15.204 -0.078,-21.122c-0.242,-7.359 0.559,-14.64 2.481,-21.761c3.758,-12.879 10.48,-20.559 32.398,-19.117c10,0.636 18.321,5.519 25.36,14.718c16.242,21.282 22.32,62.078 14.722,99.2c-5.203,25.601 -12,41.921 -21.281,51.441c-5.922,6 -16.719,13.68 -42.559,11.039c-22.48,-2.32 -25.203,-19.68 -25.363,-27.039c-0.156,-9.84 3.524,-20.16 10.16,-28.242c5.282,-6.481 15.043,-14.641 31.364,-16.957c8.718,-1.203 14.878,-9.282 13.597,-18.082c-1.199,-8.719 -9.359,-14.879 -18.078,-13.602c-21.043,2.961 -38.961,12.801 -51.68,28.402c-10.242,12.559 -16.242,27.68 -17.203,43.2c-0.316,1.281 -0.558,2.64 -0.558,4l0,197.441c0,8.801 7.199,16 16,16c8.8,0 16,-7.199 16,-16l0,-143.519c6.718,3.277 14.242,5.437 22.398,6.238c4.641,0.48 9.043,0.719 13.281,0.719c23.2,0 41.36,-6.957 55.36,-21.118c14.082,-14.32 23.281,-35.121 29.84,-67.519c7.921,-38.402 4.64,-92 -20.559,-124.961Zm-223.039,77.758c-8.723,-1.199 -16.801,4.883 -18.082,13.601c-1.199,8.719 4.883,16.801 13.601,18.078c12.559,1.762 23.2,7.364 30.801,16.243c6.559,7.679 10.399,17.519 10.719,27.121l0,3.039c-0.48,8.801 -4.398,23.597 -25.281,25.758c-25.84,2.64 -36.641,-5.039 -42.559,-11.039c-9.359,-9.52 -16.082,-25.84 -21.359,-51.442c-7.602,-37.117 -1.52,-77.918 14.719,-99.199c7.039,-9.277 15.359,-14.078 25.359,-14.719c21.922,-1.441 28.641,6.238 32.402,19.121c2.481,9.278 3.117,18.797 1.918,28.321c-1.121,8.796 5.121,16.796 13.922,17.839c8.801,1.118 16.801,-5.121 17.84,-13.921c1.68,-13.68 0.719,-27.442 -2.883,-40.719l-0.078,-0.242c-4.238,-14.797 -11.84,-25.918 -22.641,-33.039c-11.199,-7.442 -25.121,-10.481 -42.64,-9.282c-19.199,1.282 -36,10.723 -48.641,27.282c-25.117,32.96 -28.476,86.558 -20.637,124.96c6.637,32.399 15.84,53.2 29.84,67.442c13.918,14.156 32.078,21.117 55.278,21.117c4.242,0 8.722,-0.238 13.363,-0.719c8.078,-0.879 15.519,-2.961 22.156,-6.16l0,142.879c0,8.801 7.203,16 16,16c8.801,0 16,-7.199 16,-16l0,-197.277c0,-0.801 -0.078,-1.602 -0.156,-2.321c-1.602,-31.839 -25.442,-66.562 -68.961,-72.722Z" style="fill:#1890ff;fill-rule:nonzero;"/></g></g></svg>