<?xml version="1.0" encoding="UTF-8" standalone="no"?><!DOCTYPE svg PUBLIC "-//W3C//DTD SVG 1.1//EN" "http://www.w3.org/Graphics/SVG/1.1/DTD/svg11.dtd"><svg width="100%" height="100%" viewBox="0 0 715 716" version="1.1" xmlns="http://www.w3.org/2000/svg" xmlns:xlink="http://www.w3.org/1999/xlink" xml:space="preserve" xmlns:serif="http://www.serif.com/" style="fill-rule:evenodd;clip-rule:evenodd;stroke-linejoin:round;stroke-miterlimit:1.41421;"><path d="M19.84,352.68c0,186.273 151.004,337.281 337.281,337.281c186.274,0 337.277,-151.008 337.277,-337.281c0,-186.273 -151.003,-337.281 -337.277,-337.281c-186.277,0 -337.281,151.008 -337.281,337.281Z" style="fill:#e9f7ff;fill-rule:nonzero;"/><path d="M357.121,32.68c43.918,0 86.481,8.559 126.559,25.52c38.718,16.402 73.519,39.839 103.359,69.679c29.84,29.84 53.281,64.642 69.68,103.36c16.961,40.082 25.519,82.64 25.519,126.562c0,43.918 -8.558,86.481 -25.519,126.559c-16.399,38.718 -39.84,73.519 -69.68,103.359c-29.84,29.84 -64.641,53.281 -103.359,69.68c-40.078,16.961 -82.641,25.519 -126.559,25.519c-43.922,0 -86.48,-8.558 -126.562,-25.519c-38.719,-16.399 -73.52,-39.84 -103.36,-69.68c-29.84,-29.84 -53.277,-64.641 -69.679,-103.359c-16.961,-40.078 -25.52,-82.641 -25.52,-126.559c0,-43.922 8.559,-86.48 25.52,-126.562c16.402,-38.718 39.839,-73.52 69.679,-103.36c29.84,-29.84 64.641,-53.277 103.36,-69.679c40.082,-16.961 82.722,-25.52 126.562,-25.52Zm0,-32c-48.242,0 -94.961,9.441 -139.043,28.078c-42.558,18 -80.719,43.762 -113.519,76.563c-32.797,32.8 -58.559,70.961 -76.559,113.519c-18.559,43.918 -28,90.719 -28,138.961c0,48.238 9.441,94.957 28.078,139.039c18,42.559 43.762,80.719 76.563,113.52c32.8,32.8 70.961,58.558 113.519,76.558c44.078,18.641 90.801,28.082 139.039,28.082c48.242,0 94.961,-9.441 139.039,-28.082c42.563,-18 80.723,-43.758 113.524,-76.558c32.797,-32.801 58.558,-70.961 76.558,-113.52c18.641,-44.082 28.078,-90.801 28.078,-139.039c0,-48.242 -9.597,-95.043 -28.238,-139.043c-18,-42.558 -43.762,-80.719 -76.558,-113.519c-32.801,-32.797 -70.961,-58.559 -113.524,-76.559c-44,-18.559 -90.719,-28 -138.957,-28Z" style="fill:#c7eaff;fill-rule:nonzero;"/><g><path d="M493.31,363.374c-5.862,0 -10.748,4.886 -10.748,10.748l0,85.003c0,13.679 -10.747,24.426 -24.426,24.426l-202.25,0c-13.679,0 -24.426,-10.747 -24.426,-24.426l0,-85.003c0,-5.862 -4.886,-10.748 -10.748,-10.748c-5.862,0 -10.748,4.886 -10.748,10.748l0,85.003c0.977,24.426 21.496,44.945 45.922,44.945l202.25,0c25.404,0 44.945,-20.519 44.945,-45.922l0,-85.005c0.977,-4.883 -3.907,-9.769 -9.771,-9.769Z" style="fill:#1890ff;fill-rule:nonzero;"/><path d="M458.136,211.93l-202.25,0c-24.426,0 -44.945,19.541 -44.945,44.945l0,83.049c0,5.862 4.885,10.748 10.748,10.748c5.862,0 10.747,-4.886 10.747,-10.748l0,-83.049c0,-13.678 10.748,-24.426 24.427,-24.426l202.251,0c13.679,0 24.426,10.748 24.426,24.426l0,83.049c0,5.862 4.886,10.748 10.748,10.748c5.862,0 10.748,-4.886 10.748,-10.748l0,-83.049c-1.955,-25.404 -21.496,-44.945 -46.9,-44.945Z" style="fill:#1890ff;fill-rule:nonzero;"/><path d="M335.028,389.755c0,-4.886 -4.886,-9.771 -11.725,-9.771c-5.862,0 -11.726,3.907 -11.726,9.771l0,8.793c0,4.886 4.886,9.77 11.726,9.77c5.862,0 11.725,-3.908 11.725,-9.77l0,-8.793Zm73.279,8.793l0,-8.793c0,-4.886 -4.886,-9.771 -11.725,-9.771c-6.84,0 -11.725,3.907 -11.725,9.771l0,8.793c0,4.886 4.885,9.77 11.725,9.77c6.839,0 11.725,-3.908 11.725,-9.77Zm-47.877,54.715c14.657,0 25.405,-10.748 29.312,-16.61c2.931,-4.886 1.955,-11.726 -2.931,-15.633c-4.885,-2.931 -11.724,-1.955 -14.655,2.931c0,0 -4.886,6.84 -11.726,6.84c-6.838,0 -10.747,-6.84 -11.724,-6.84c-2.931,-4.886 -9.769,-6.839 -14.655,-3.908c-4.886,2.931 -6.84,9.77 -2.931,14.656c3.908,7.816 13.678,18.564 29.31,18.564Zm-18.562,-133.856l-8.795,-26.381c-1.953,-5.862 -7.817,-8.793 -13.679,-6.84c-5.862,1.954 -8.793,7.816 -6.838,12.702l7.816,22.472c-15.633,2.931 -26.381,6.84 -34.197,10.747l-17.586,-37.126c11.723,-7.817 40.057,-24.427 88.91,-24.427c47.877,0 77.189,15.632 88.913,23.448l-18.565,37.129c-11.724,-4.885 -34.196,-12.702 -70.348,-12.702c-5.862,0 -10.748,0 -15.631,0.978Zm92.82,38.105c2.93,-0.978 5.862,-2.931 7.816,-5.864l27.358,-55.691c1.953,-3.908 0.976,-8.793 -1.955,-11.724c-1.954,-0.978 -37.128,-34.198 -110.408,-34.198c-73.279,0 -108.453,33.22 -109.429,34.198c-2.932,2.931 -3.908,7.816 -1.955,11.724l27.357,55.691c1.955,2.933 3.91,4.886 7.817,5.864l1.955,0c2.931,0 4.885,-0.978 6.84,-2.931c0,0 17.586,-15.633 67.415,-15.633c49.831,0 67.417,15.633 67.417,15.633c2.931,1.953 5.863,2.931 9.772,2.931Z" style="fill:#1890ff;fill-rule:nonzero;"/></g></svg>